<svg width="280" height="280" viewBox="0 0 280 280" fill="none" xmlns="http://www.w3.org/2000/svg">
<rect width="280" height="280" fill="white"/>
<path d="M46.736 161.088C46.48 161.088 46.0747 160.789 45.52 160.192C45.008 159.637 44.4747 159.019 43.92 158.336C43.408 157.611 43.024 157.077 42.768 156.736C43.152 155.072 43.8133 153.344 44.752 151.552C45.7333 149.717 46.864 147.925 48.144 146.176C49.424 144.427 50.704 142.805 51.984 141.312C53.3067 139.819 54.4587 138.56 55.44 137.536C54.7147 138.091 53.9467 138.816 53.136 139.712C52.3253 140.565 51.7707 141.141 51.472 141.44C50.96 141.952 50.448 142.464 49.936 142.976C49.424 143.445 48.9547 143.915 48.528 144.384C49.808 142.805 51.0667 141.355 52.304 140.032C53.584 138.709 54.5013 137.835 55.056 137.408C55.184 137.28 55.3547 137.131 55.568 136.96C55.824 136.789 56.1013 136.683 56.4 136.64L56.912 136.064C58.064 136.107 59.3013 136.469 60.624 137.152C61.9467 137.792 63.0773 138.645 64.016 139.712C64.9973 140.736 65.5093 141.909 65.552 143.232C65.552 143.403 65.4667 143.573 65.296 143.744C65.1253 143.872 64.9973 143.787 64.912 143.488C64.6133 142.848 64.272 142.272 63.888 141.76C63.504 141.248 63.0773 140.843 62.608 140.544C62.1813 140.288 61.7333 140.16 61.264 140.16C60.752 140.16 60.2827 140.331 59.856 140.672C59.0027 141.312 57.9787 142.272 56.784 143.552C55.632 144.789 54.4587 146.133 53.264 147.584C52.112 149.035 51.0667 150.443 50.128 151.808C49.232 153.173 48.6133 154.304 48.272 155.2C48.528 154.901 48.976 154.475 49.616 153.92C50.256 153.365 50.9387 152.811 51.664 152.256C52.3893 151.659 53.008 151.168 53.52 150.784C53.6907 150.656 54.0533 150.4 54.608 150.016C55.1627 149.632 55.7387 149.227 56.336 148.8C56.976 148.373 57.488 148.053 57.872 147.84C57.872 147.925 57.616 148.16 57.104 148.544C56.6347 148.928 56.0587 149.355 55.376 149.824C54.6933 150.293 54.0533 150.72 53.456 151.104C52.9013 151.488 52.56 151.744 52.432 151.872C51.9627 152.299 51.408 152.789 50.768 153.344C50.1707 153.899 49.616 154.411 49.104 154.88C48.592 155.349 48.2507 155.691 48.08 155.904C47.9947 156.075 47.9733 156.181 48.016 156.224C48.0587 156.267 48.144 156.203 48.272 156.032C48.656 155.477 49.232 154.88 50 154.24C50.768 153.6 51.6 152.96 52.496 152.32C53.4347 151.637 54.2667 151.019 54.992 150.464C55.8453 149.824 56.6133 149.269 57.296 148.8C58.0213 148.288 58.6613 147.819 59.216 147.392C59.2587 146.496 59.5787 145.877 60.176 145.536C60.816 145.195 61.3067 145.088 61.648 145.216C61.904 145.301 62.288 145.472 62.8 145.728C63.3547 145.941 63.8453 146.219 64.272 146.56C64.6987 146.859 64.8267 147.2 64.656 147.584C64.3573 148.267 64.1227 149.333 63.952 150.784C63.824 152.192 63.76 153.493 63.76 154.688C63.76 156.395 64.2933 157.248 65.36 157.248C65.9147 157.248 66.6613 156.949 67.6 156.352C67.9413 156.139 68.1973 156.032 68.368 156.032C68.496 156.032 68.56 156.096 68.56 156.224C68.56 156.395 68.4533 156.651 68.24 156.992C68.0267 157.291 67.8773 157.483 67.792 157.568C67.28 158.123 66.6613 158.635 65.936 159.104C65.2533 159.531 64.5493 159.744 63.824 159.744C63.5253 159.744 63.2267 159.701 62.928 159.616C62.6293 159.531 62.3307 159.381 62.032 159.168C60.9653 158.443 60.1973 157.333 59.728 155.84C59.3013 154.347 59.088 153.067 59.088 152C59.088 151.744 59.088 151.509 59.088 151.296C59.1307 151.083 59.1733 150.891 59.216 150.72C58.7467 151.104 57.9573 151.765 56.848 152.704C55.7813 153.6 54.5867 154.624 53.264 155.776C51.9413 156.885 50.6827 157.931 49.488 158.912C48.2933 159.893 47.376 160.619 46.736 161.088ZM78.4575 163.645C75.9375 161.575 73.7775 159.64 71.9775 157.84C70.2675 156.04 69.4125 154.285 69.4125 152.575C69.4125 152.125 69.4575 151.765 69.5475 151.495C70.4475 148.345 72.0675 144.61 74.4075 140.29C76.8375 135.97 79.6725 131.335 82.9125 126.385C86.2425 121.345 89.7525 116.305 93.4425 111.265C97.1325 106.135 100.733 101.275 104.243 96.685C107.843 92.005 111.128 87.865 114.098 84.265C117.068 80.575 119.453 77.695 121.253 75.625C123.053 73.555 123.998 72.52 124.088 72.52C124.988 72.79 126.338 73.69 128.138 75.22C129.938 76.66 131.153 78.145 131.783 79.675C131.963 79.855 132.053 80.035 132.053 80.215C132.143 81.295 132.773 82.285 133.943 83.185C135.113 84.085 135.698 85.075 135.698 86.155C135.698 89.215 134.528 92.545 132.188 96.145C129.848 99.655 126.788 103.255 123.008 106.945C119.228 110.635 115.133 114.28 110.723 117.88C106.313 121.39 101.948 124.675 97.6275 127.735C93.3975 130.705 89.7075 133.315 86.5575 135.565C83.8575 139.345 82.2375 142.72 81.6975 145.69C81.2475 148.66 81.0675 150.865 81.1575 152.305C85.5675 149.335 89.7525 146.005 93.7125 142.315C94.7025 141.505 96.1425 140.38 98.0325 138.94C100.013 137.41 102.038 135.925 104.108 134.485C106.178 133.045 107.753 132.01 108.833 131.38C109.823 130.84 110.588 130.39 111.128 130.03C111.758 129.67 111.713 129.76 110.993 130.3C108.833 132.01 105.953 134.17 102.353 136.78C107.483 133.36 112.613 130.84 117.743 129.22C118.733 128.86 119.498 128.68 120.038 128.68C120.938 128.68 120.893 129.175 119.903 130.165C118.913 131.065 117.743 132.01 116.393 133C110.183 137.5 103.793 142.225 97.2225 147.175C90.6525 152.125 84.3975 157.615 78.4575 163.645ZM91.9575 128.14C95.3775 125.62 98.6175 122.92 101.678 120.04C104.738 117.07 107.798 114.19 110.858 111.4C116.168 106.36 120.443 101.455 123.683 96.685C127.013 91.915 129.128 87.685 130.028 83.995C128.408 85.795 126.203 88.27 123.413 91.42C120.713 94.48 117.698 97.945 114.368 101.815C111.038 105.595 107.618 109.51 104.108 113.56C100.688 117.61 97.4475 121.48 94.3875 125.17C94.1175 125.44 93.7575 125.845 93.3075 126.385C92.9475 126.835 92.4975 127.42 91.9575 128.14ZM83.4525 153.655C84.4425 152.665 85.7025 151.495 87.2325 150.145C88.7625 148.795 90.5175 147.13 92.4975 145.15C93.3975 144.25 94.7475 142.99 96.5475 141.37C98.4375 139.75 100.373 138.22 102.353 136.78C98.7525 139.3 95.6025 141.64 92.9025 143.8C90.2025 145.96 87.7275 147.985 85.4775 149.875L83.5875 152.17C83.0475 152.8 82.8225 153.295 82.9125 153.655C83.0025 154.015 83.1825 154.015 83.4525 153.655ZM110.65 163C109.916 162.367 109.4 161.767 109.1 161.2C108.833 160.667 108.7 160.15 108.7 159.65C108.7 159.45 108.733 159.267 108.8 159.1C108.833 158.9 108.866 158.7 108.9 158.5C109.066 158 109.45 157.15 110.05 155.95C110.683 154.75 111.433 153.383 112.3 151.85C113.2 150.317 114.15 148.767 115.15 147.2C116.15 145.6 117.1 144.167 118 142.9C117.7 142.967 117.383 143.017 117.05 143.05C116.75 143.083 116.45 143.1 116.15 143.1C115.316 143.1 114.566 143.05 113.9 142.95C113.266 142.817 112.9 142.733 112.8 142.7C112.466 142.633 112.25 142.417 112.15 142.05C112.083 141.65 112.066 141.25 112.1 140.85C112 140.817 111.933 140.767 111.9 140.7C111.866 140.633 111.833 140.583 111.8 140.55C111.8 140.483 111.783 140.417 111.75 140.35C111.75 140.283 111.75 140.217 111.75 140.15C111.75 139.817 111.833 139.6 112 139.5C112.2 139.4 112.416 139.35 112.65 139.35C112.916 139.35 113.2 139.383 113.5 139.45C113.833 139.483 114.166 139.5 114.5 139.5C115.066 139.5 115.666 139.45 116.3 139.35C116.933 139.217 117.3 139.05 117.4 138.85C117.5 138.65 117.6 138.55 117.7 138.55C117.766 138.55 117.866 138.733 118 139.1C118 139.133 118 139.167 118 139.2C118.033 139.233 118.05 139.283 118.05 139.35C118.05 139.65 117.916 139.967 117.65 140.3H119.8C120.366 139.567 120.983 138.75 121.65 137.85C122.35 136.917 123.033 136 123.7 135.1C124.4 134.167 125.016 133.333 125.55 132.6C126.116 131.867 126.533 131.3 126.8 130.9C126.666 130.767 126.6 130.6 126.6 130.4C126.6 130.133 126.666 129.867 126.8 129.6C126.966 129.333 127.05 129.133 127.05 129C127.05 128.9 127.016 128.783 126.95 128.65C126.916 128.517 126.9 128.4 126.9 128.3C126.9 128.033 127.05 127.9 127.35 127.9C127.416 127.9 127.583 127.933 127.85 128C128.283 128.133 128.833 128.4 129.5 128.8C130.2 129.2 130.8 129.65 131.3 130.15C131.8 130.65 131.95 131.167 131.75 131.7C131.516 131.967 131.1 132.433 130.5 133.1C129.933 133.767 129.283 134.533 128.55 135.4C127.816 136.233 127.083 137.1 126.35 138C125.65 138.867 125.016 139.667 124.45 140.4C125.35 140.333 126.266 140.283 127.2 140.25C128.166 140.217 129.016 140.183 129.75 140.15C130.516 140.117 131.016 140.1 131.25 140.1C131.85 140.1 132.15 140.183 132.15 140.35C132.15 140.483 132.016 140.617 131.75 140.75C131.483 140.883 131.2 140.983 130.9 141.05C130.866 141.017 130.4 141.05 129.5 141.15C128.633 141.25 127.766 141.35 126.9 141.45C126.5 141.483 125.983 141.533 125.35 141.6C124.75 141.633 124.166 141.667 123.6 141.7L123.4 141.9C124.133 141.867 124.95 141.833 125.85 141.8C126.783 141.733 127.516 141.7 128.05 141.7C127.483 141.8 126.733 141.883 125.8 141.95C124.866 141.983 123.966 142.067 123.1 142.2C122.433 142.933 121.683 143.85 120.85 144.95C120.05 146.017 119.2 147.167 118.3 148.4C117.433 149.6 116.6 150.783 115.8 151.95C115 153.083 114.283 154.1 113.65 155C113.016 155.9 112.533 156.567 112.2 157C112.666 156.833 113.216 156.6 113.85 156.3C114.483 155.967 115.116 155.617 115.75 155.25C117.216 154.283 118.783 153.233 120.45 152.1C122.15 150.967 123.633 149.983 124.9 149.15C125.7 148.65 126.483 148.117 127.25 147.55C128.05 146.95 128.816 146.333 129.55 145.7C129.616 145.633 129.65 145.633 129.65 145.7C129.683 145.767 129.666 145.833 129.6 145.9L127.7 147.6C127.733 147.733 127.75 147.867 127.75 148C127.75 148.1 127.75 148.217 127.75 148.35C127.75 148.65 127.7 148.933 127.6 149.2C127.533 149.467 127.383 149.683 127.15 149.85C126.583 150.217 125.716 150.817 124.55 151.65C123.416 152.483 122.133 153.45 120.7 154.55C119.266 155.617 117.85 156.7 116.45 157.8C115.083 158.9 113.866 159.917 112.8 160.85C111.733 161.783 111.016 162.5 110.65 163ZM111.5 158L113.9 156.5L111.85 157.45L111.5 158ZM130.723 161.088C130.467 161.088 130.062 160.789 129.507 160.192C128.995 159.637 128.462 159.019 127.907 158.336C127.395 157.611 127.011 157.077 126.755 156.736C127.139 155.072 127.801 153.344 128.739 151.552C129.721 149.717 130.851 147.925 132.131 146.176C133.411 144.427 134.691 142.805 135.971 141.312C137.294 139.819 138.446 138.56 139.427 137.536C138.702 138.091 137.934 138.816 137.123 139.712C136.313 140.565 135.758 141.141 135.459 141.44C134.947 141.952 134.435 142.464 133.923 142.976C133.411 143.445 132.942 143.915 132.515 144.384C133.795 142.805 135.054 141.355 136.291 140.032C137.571 138.709 138.489 137.835 139.043 137.408C139.171 137.28 139.342 137.131 139.555 136.96C139.811 136.789 140.089 136.683 140.387 136.64L140.899 136.064C142.051 136.107 143.289 136.469 144.611 137.152C145.934 137.792 147.065 138.645 148.003 139.712C148.985 140.736 149.497 141.909 149.539 143.232C149.539 143.403 149.454 143.573 149.283 143.744C149.113 143.872 148.985 143.787 148.899 143.488C148.601 142.848 148.259 142.272 147.875 141.76C147.491 141.248 147.065 140.843 146.595 140.544C146.169 140.288 145.721 140.16 145.251 140.16C144.739 140.16 144.27 140.331 143.843 140.672C142.99 141.312 141.966 142.272 140.771 143.552C139.619 144.789 138.446 146.133 137.251 147.584C136.099 149.035 135.054 150.443 134.115 151.808C133.219 153.173 132.601 154.304 132.259 155.2C132.515 154.901 132.963 154.475 133.603 153.92C134.243 153.365 134.926 152.811 135.651 152.256C136.377 151.659 136.995 151.168 137.507 150.784C137.678 150.656 138.041 150.4 138.595 150.016C139.15 149.632 139.726 149.227 140.323 148.8C140.963 148.373 141.475 148.053 141.859 147.84C141.859 147.925 141.603 148.16 141.091 148.544C140.622 148.928 140.046 149.355 139.363 149.824C138.681 150.293 138.041 150.72 137.443 151.104C136.889 151.488 136.547 151.744 136.419 151.872C135.95 152.299 135.395 152.789 134.755 153.344C134.158 153.899 133.603 154.411 133.091 154.88C132.579 155.349 132.238 155.691 132.067 155.904C131.982 156.075 131.961 156.181 132.003 156.224C132.046 156.267 132.131 156.203 132.259 156.032C132.643 155.477 133.219 154.88 133.987 154.24C134.755 153.6 135.587 152.96 136.483 152.32C137.422 151.637 138.254 151.019 138.979 150.464C139.833 149.824 140.601 149.269 141.283 148.8C142.009 148.288 142.649 147.819 143.203 147.392C143.246 146.496 143.566 145.877 144.163 145.536C144.803 145.195 145.294 145.088 145.635 145.216C145.891 145.301 146.275 145.472 146.787 145.728C147.342 145.941 147.833 146.219 148.259 146.56C148.686 146.859 148.814 147.2 148.643 147.584C148.345 148.267 148.11 149.333 147.939 150.784C147.811 152.192 147.747 153.493 147.747 154.688C147.747 156.395 148.281 157.248 149.347 157.248C149.902 157.248 150.649 156.949 151.587 156.352C151.929 156.139 152.185 156.032 152.355 156.032C152.483 156.032 152.547 156.096 152.547 156.224C152.547 156.395 152.441 156.651 152.227 156.992C152.014 157.291 151.865 157.483 151.779 157.568C151.267 158.123 150.649 158.635 149.923 159.104C149.241 159.531 148.537 159.744 147.811 159.744C147.513 159.744 147.214 159.701 146.915 159.616C146.617 159.531 146.318 159.381 146.019 159.168C144.953 158.443 144.185 157.333 143.715 155.84C143.289 154.347 143.075 153.067 143.075 152C143.075 151.744 143.075 151.509 143.075 151.296C143.118 151.083 143.161 150.891 143.203 150.72C142.734 151.104 141.945 151.765 140.835 152.704C139.769 153.6 138.574 154.624 137.251 155.776C135.929 156.885 134.67 157.931 133.475 158.912C132.281 159.893 131.363 160.619 130.723 161.088ZM164.53 140.32C164.114 140.128 163.682 139.76 163.234 139.216C162.786 138.672 162.562 138.208 162.562 137.824C162.562 137.504 162.706 137.344 162.994 137.344C163.154 137.344 163.346 137.376 163.57 137.44C163.794 137.472 164.018 137.488 164.242 137.488C164.53 137.488 164.85 137.392 165.202 137.2C165.554 136.976 165.906 136.864 166.258 136.864C166.706 136.864 167.058 137.168 167.314 137.776C167.41 137.936 167.33 138.16 167.074 138.448C166.818 138.736 166.514 139.008 166.162 139.264C165.842 139.52 165.57 139.712 165.346 139.84C165.506 139.84 165.762 139.728 166.114 139.504C166.466 139.248 166.754 139.008 166.978 138.784C166.562 139.296 166.082 139.696 165.538 139.984C164.994 140.24 164.658 140.352 164.53 140.32ZM154.114 159.856C153.538 159.344 153.138 158.928 152.914 158.608C152.722 158.256 152.626 157.936 152.626 157.648C152.626 157.424 152.658 157.2 152.722 156.976C152.818 156.752 152.898 156.512 152.962 156.256C153.314 155.072 153.89 153.792 154.69 152.416C155.49 151.04 156.354 149.696 157.282 148.384C158.242 147.04 159.09 145.856 159.826 144.832C159.762 144.768 159.73 144.576 159.73 144.256C159.73 143.808 159.81 143.312 159.97 142.768C160.162 142.192 160.418 141.968 160.738 142.096C161.122 142.192 161.57 142.384 162.082 142.672C162.626 142.96 163.106 143.296 163.522 143.68C163.938 144.064 164.146 144.48 164.146 144.928C164.146 145.024 164.114 145.168 164.05 145.36H164.002C163.17 146.256 162.354 147.248 161.554 148.336C160.754 149.424 160.05 150.448 159.442 151.408C158.866 152.336 158.466 153.04 158.242 153.52C158.434 153.424 158.642 153.296 158.866 153.136C159.09 152.976 159.33 152.784 159.586 152.56C159.426 152.656 159.282 152.72 159.154 152.752C159.058 152.784 159.042 152.784 159.106 152.752C159.938 152.08 160.898 151.392 161.986 150.688C163.106 149.984 164.242 149.344 165.394 148.768C166.546 148.16 167.634 147.664 168.658 147.28H168.754C168.818 147.28 168.77 147.328 168.61 147.424C168.482 147.488 168.306 147.568 168.082 147.664C167.858 147.76 167.554 147.92 167.17 148.144C166.786 148.336 166.354 148.576 165.874 148.864C166.322 148.672 166.786 148.448 167.266 148.192C167.746 147.936 168.242 147.728 168.754 147.568C168.914 147.504 169.058 147.456 169.186 147.424C169.346 147.392 169.458 147.376 169.522 147.376C169.746 147.376 169.858 147.456 169.858 147.616C169.858 147.84 169.634 148.16 169.186 148.576C168.738 148.992 168.162 149.392 167.458 149.776C167.042 150 166.386 150.416 165.49 151.024C164.626 151.632 163.634 152.352 162.514 153.184C161.394 153.984 160.258 154.816 159.106 155.68C157.986 156.544 156.978 157.344 156.082 158.08C155.186 158.816 154.53 159.408 154.114 159.856ZM159.586 152.56C159.746 152.496 159.906 152.416 160.066 152.32C160.258 152.192 160.386 152.112 160.45 152.08C161.058 151.664 161.858 151.184 162.85 150.64C163.874 150.064 164.882 149.472 165.874 148.864C164.274 149.632 163.01 150.304 162.082 150.88C161.154 151.456 160.322 152.016 159.586 152.56ZM166.815 160C165.738 159.873 164.883 159.272 164.25 158.195C163.616 157.055 163.3 155.978 163.3 154.965C163.3 154.142 163.743 152.843 164.63 151.07C165.58 149.297 166.751 147.302 168.145 145.085C169.601 142.805 171.09 140.588 172.61 138.435C174.193 136.218 175.586 134.255 176.79 132.545C178.056 130.835 178.943 129.632 179.45 128.935C178.626 129.695 177.866 130.455 177.17 131.215C176.473 131.975 176.061 132.355 175.935 132.355C175.871 132.355 176.188 131.785 176.885 130.645C177.645 129.442 179.101 127.288 181.255 124.185C181.888 124.185 182.648 124.533 183.535 125.23C184.421 125.927 185.213 126.718 185.91 127.605C186.606 128.492 186.955 129.252 186.955 129.885C186.258 131.025 185.15 132.482 183.63 134.255C182.173 135.965 180.621 137.738 178.975 139.575C177.391 141.412 175.966 143.09 174.7 144.61C174.89 144.42 175.65 143.755 176.98 142.615C178.373 141.475 180.083 140.05 182.11 138.34C184.136 136.63 186.29 134.825 188.57 132.925C190.913 131.025 193.13 129.252 195.22 127.605C197.31 125.895 199.083 124.533 200.54 123.52C202.06 122.443 203.01 121.905 203.39 121.905C203.77 121.905 204.308 122.285 205.005 123.045C205.765 123.742 206.461 124.533 207.095 125.42C207.728 126.307 208.045 127.035 208.045 127.605C208.045 127.668 207.57 128.207 206.62 129.22C205.733 130.233 204.593 131.532 203.2 133.115C201.87 134.635 200.54 136.25 199.21 137.96C197.88 139.607 196.74 141.158 195.79 142.615C194.903 144.072 194.491 145.148 194.555 145.845C193.921 145.718 193.383 145.148 192.94 144.135C192.496 143.058 192.275 141.855 192.275 140.525C192.275 139.765 192.496 138.847 192.94 137.77C193.446 136.693 193.985 135.648 194.555 134.635C195.188 133.622 195.726 132.735 196.17 131.975C196.676 131.215 196.93 130.803 196.93 130.74C196.55 131.183 196.011 131.912 195.315 132.925C194.681 133.938 194.048 134.952 193.415 135.965C192.845 136.915 192.465 137.612 192.275 138.055C192.465 137.295 193.003 136.06 193.89 134.35C194.776 132.64 195.948 130.93 197.405 129.22C196.708 129.853 195.505 130.93 193.795 132.45C192.148 133.907 190.248 135.648 188.095 137.675C185.941 139.702 183.693 141.823 181.35 144.04C179.07 146.193 176.885 148.315 174.795 150.405C172.705 152.495 170.931 154.395 169.475 156.105C168.081 157.752 167.195 159.05 166.815 160Z" fill="url(#paint0_linear_2231_2)"/>
<path d="M202.512 160.096C201.616 160.096 201.088 159.952 200.928 159.664C200.8 159.344 200.736 158.848 200.736 158.176C200.736 157.44 200.8 156.944 200.928 156.688C201.088 156.432 201.616 156.304 202.512 156.304C203.44 156.304 203.984 156.432 204.144 156.688C204.304 156.944 204.384 157.44 204.384 158.176C204.384 158.848 204.288 159.344 204.096 159.664C203.936 159.952 203.408 160.096 202.512 160.096ZM207.999 160L207.327 155.92H209.775C210.383 155.92 210.815 155.84 211.071 155.68C211.327 155.52 211.471 155.2 211.503 154.72C211.567 154.24 211.599 153.504 211.599 152.512V130.24H216.783V154.192C216.783 155.664 216.671 156.832 216.447 157.696C216.255 158.528 215.775 159.12 215.007 159.472C214.271 159.824 213.087 160 211.455 160H207.999ZM227.608 160.336C226.2 160.336 224.872 160.24 223.624 160.048C222.408 159.856 221.432 159.488 220.696 158.944C219.992 158.368 219.64 157.552 219.64 156.496V149.776L224.824 149.2V154.336C224.824 154.912 224.984 155.376 225.304 155.728C225.656 156.048 226.328 156.208 227.32 156.208C227.96 156.208 228.456 156.128 228.808 155.968C229.16 155.776 229.4 155.52 229.528 155.2C229.656 154.88 229.72 154.48 229.72 154V150.784C229.72 149.92 229.512 149.152 229.096 148.48C228.712 147.808 227.992 147.312 226.936 146.992L223.624 145.984C222.216 145.536 221.192 144.96 220.552 144.256C219.944 143.552 219.64 142.448 219.64 140.944V134.704C219.64 133.296 219.992 132.256 220.696 131.584C221.4 130.912 222.36 130.48 223.576 130.288C224.792 130.064 226.12 129.952 227.56 129.952C228.936 129.952 230.168 130.064 231.256 130.288C232.376 130.512 233.256 130.912 233.896 131.488C234.568 132.032 234.904 132.8 234.904 133.792V140.512L229.72 141.232V136.384C229.72 135.392 229.544 134.752 229.192 134.464C228.872 134.144 228.264 133.984 227.368 133.984C226.44 133.984 225.784 134.176 225.4 134.56C225.016 134.912 224.824 135.632 224.824 136.72V139.504C224.824 140.24 224.984 140.928 225.304 141.568C225.656 142.176 226.216 142.608 226.984 142.864L230.68 144.016C232.184 144.496 233.256 145.104 233.896 145.84C234.568 146.544 234.904 147.648 234.904 149.152V155.44C234.904 156.816 234.584 157.856 233.944 158.56C233.304 159.264 232.424 159.744 231.304 160C230.216 160.224 228.984 160.336 227.608 160.336Z" fill="black"/>
<defs>
<linearGradient id="paint0_linear_2231_2" x1="42" y1="126.5" x2="196" y2="126.5" gradientUnits="userSpaceOnUse">
<stop/>
<stop offset="1" stop-color="#8EF0FB"/>
</linearGradient>
</defs>
</svg>
